<?xml version="1.0" encoding="UTF-8" standalone="no"?>
<svg
   xmlns:dc="http://purl.org/dc/elements/1.1/"
   xmlns:cc="http://creativecommons.org/ns#"
   xmlns:rdf="http://www.w3.org/1999/02/22-rdf-syntax-ns#"
   xmlns:svg="http://www.w3.org/2000/svg"
   xmlns="http://www.w3.org/2000/svg"
   xmlns:sodipodi="http://sodipodi.sourceforge.net/DTD/sodipodi-0.dtd"
   xmlns:inkscape="http://www.inkscape.org/namespaces/inkscape"
   width="300mm"
   height="100mm"
   viewBox="0 0 300 100"
   version="1.1"
   id="svg8"
   inkscape:version="1.0.1 (c497b03c, 2020-09-10)"
   sodipodi:docname="logo.svg">
  <defs
     id="defs2" />
  <sodipodi:namedview
     id="base"
     pagecolor="#ffffff"
     bordercolor="#666666"
     borderopacity="1.0"
     inkscape:pageopacity="0.0"
     inkscape:pageshadow="2"
     inkscape:zoom="1.0212917"
     inkscape:cx="625.06855"
     inkscape:cy="188.97638"
     inkscape:document-units="mm"
     inkscape:current-layer="g904"
     inkscape:document-rotation="0"
     showgrid="false"
     inkscape:window-width="1792"
     inkscape:window-height="978"
     inkscape:window-x="0"
     inkscape:window-y="25"
     inkscape:window-maximized="0" />
  <metadata
     id="metadata5">
    <rdf:RDF>
      <cc:Work
         rdf:about="">
        <dc:format>image/svg+xml</dc:format>
        <dc:type
           rdf:resource="http://purl.org/dc/dcmitype/StillImage" />
        <dc:title />
      </cc:Work>
    </rdf:RDF>
  </metadata>
  <g
     inkscape:label="Layer 1"
     inkscape:groupmode="layer"
     id="layer1">
    <g
       id="g904"
       transform="matrix(1.6067571,0,0,1.6067571,-17.093354,-95.836182)"
       style="fill:#666666">
      <g
         id="g873"
         style="fill:#666666">
        <g
           aria-label="luz"
           transform="scale(1.0503136,0.95209661)"
           id="text849-4"
           style="font-style:normal;font-weight:normal;font-size:27.1669px;line-height:1.25;font-family:sans-serif;fill:#666666;fill-opacity:1;stroke:#666666;stroke-width:1.07819;stroke-miterlimit:4;stroke-dasharray:none;stroke-opacity:1" />
      </g>
      <g
         id="g922"
         style="fill:#ffffff">
        <path
           d="m 76.4403,96.662535 v 0.32685 q 0,4.739325 -5.638163,4.739325 -2.097287,0 -2.887175,0.2179 -0.6537,0.2179 -0.6537,0.81712 0,0.57199 0.680938,0.76265 0.708175,0.16343 2.859937,0.16343 3.404688,0 4.657613,0.84436 1.3074,0.81713 1.3074,2.88718 0,2.31518 -1.334638,3.24126 -1.252925,0.92607 -4.630375,0.92607 -3.459162,0 -4.712087,-0.92607 -1.280163,-0.89884 -1.280163,-2.85994 0,-1.9611 1.5253,-2.91441 -1.116737,-0.54475 -1.116737,-1.79768 0,-1.79767 2.206237,-2.12452 -2.28795,-0.92608 -2.28795,-3.976675 v -0.32685 q 0,-2.233475 1.498063,-3.459163 1.498062,-1.252925 4.167337,-1.252925 1.498063,0 2.805463,0.54475 l 1.552537,-1.389112 q 0.354088,-0.299613 0.571988,-0.299613 0.2179,0 0.54475,0.299613 l 0.190662,0.190662 q 0.32685,0.299613 0.32685,0.517513 0,0.2179 -0.32685,0.54475 l -1.225687,1.252925 q 1.19845,1.116737 1.19845,3.0506 z m -2.07005,0.32685 v -0.32685 q 0,-2.887175 -3.568113,-2.887175 -3.622587,0 -3.622587,2.887175 v 0.32685 q 0,1.552537 0.817125,2.260712 0.844362,0.680938 2.805462,0.680938 1.9611,0 2.750988,-0.680938 0.817125,-0.708175 0.817125,-2.260712 z m -3.568113,8.498095 q -1.5253,0 -2.669275,-0.13618 -1.280162,0.62646 -1.280162,2.23347 0,1.3074 0.844362,1.77044 0.844363,0.46304 3.105075,0.46304 2.233475,0 3.077838,-0.49028 0.844362,-0.49027 0.844362,-1.82491 0,-1.25293 -0.817125,-1.63425 -0.844362,-0.38133 -3.105075,-0.38133 z"
           style="fill:#ffffff;font-style:normal;font-variant:normal;font-weight:normal;font-stretch:normal;font-size:27.23750000000000071px;line-height:1.25;font-family:'AmpleSoft Pro';-inkscape-font-specification:'AmpleSoft Pro, Normal';font-variant-ligatures:normal;font-variant-caps:normal;font-variant-numeric:normal;font-variant-east-asian:normal;fill-opacity:1;stroke:none;stroke-width:0.680938"
           id="path871" />
        <path
           d="m 88.856769,100.20341 v -2.533088 q 0,-2.042812 -0.8716,-2.914412 -0.8716,-0.8716 -3.023363,-0.8716 -2.178999,0 -3.077837,0.8716 -0.8716,0.8716 -0.8716,2.914412 v 2.533088 q 0,2.04281 0.8716,2.91441 0.898838,0.8716 3.077837,0.8716 2.151763,0 3.023363,-0.8716 0.8716,-0.8716 0.8716,-2.91441 z m -3.894963,5.71987 q -3.105074,0 -4.548662,-1.41635 -1.443587,-1.41635 -1.443587,-4.30352 v -2.533088 q 0,-5.719875 5.992249,-5.719875 3.077838,0 4.494188,1.41635 1.443587,1.41635 1.443587,4.303525 v 2.533088 q 0,5.71987 -5.937775,5.71987 z"
           style="fill:#ffffff;font-style:normal;font-variant:normal;font-weight:normal;font-stretch:normal;font-size:27.23750000000000071px;line-height:1.25;font-family:'AmpleSoft Pro';-inkscape-font-specification:'AmpleSoft Pro, Normal';font-variant-ligatures:normal;font-variant-caps:normal;font-variant-numeric:normal;font-variant-east-asian:normal;fill-opacity:1;stroke:none;stroke-width:0.680938"
           id="path873" />
        <path
           d="m 92.592562,93.421272 v -0.136187 q 0,-0.463038 0.136187,-0.626463 0.163425,-0.163425 0.599225,-0.2179 l 1.552538,-0.2179 0.299612,-2.805462 q 0.02724,-0.4358 0.190663,-0.571988 0.163425,-0.163425 0.626462,-0.163425 h 0.190663 q 0.4358,0 0.571987,0.163425 0.163425,0.136188 0.163425,0.571988 v 2.805462 h 4.412476 q 0.51751,0 0.68094,0.163425 0.16342,0.163425 0.16342,0.680938 v 0.245137 q 0,0.517513 -0.16342,0.680938 -0.16343,0.163425 -0.68094,0.163425 h -4.412476 v 6.918325 q 0,1.49806 0.599225,2.20624 0.626463,0.68093 1.906625,0.68093 1.525296,0 2.424136,-0.27237 0.46304,-0.10895 0.62646,0.0545 0.19067,0.13619 0.19067,0.6537 v 0.24514 q 0,0.40856 -0.19067,0.62646 -0.16342,0.2179 -0.6537,0.35409 -1.00778,0.27238 -2.369658,0.27238 -4.5759,0 -4.5759,-4.82104 v -6.918325 h -1.552538 q -0.463037,0 -0.599225,-0.136188 -0.136187,-0.136187 -0.136187,-0.599225 z"
           style="fill:#ffffff;font-style:normal;font-variant:normal;font-weight:normal;font-stretch:normal;font-size:27.23750000000000071px;line-height:1.25;font-family:'AmpleSoft Pro';-inkscape-font-specification:'AmpleSoft Pro, Normal';font-variant-ligatures:normal;font-variant-caps:normal;font-variant-numeric:normal;font-variant-east-asian:normal;fill-opacity:1;stroke:none;stroke-width:0.680938"
           id="path875" />
        <path
           d="m 114.99115,96.226735 v 5.393025 q 0,2.26071 -1.36188,3.29574 -1.36187,1.00778 -4.33076,1.00778 -2.47861,0 -3.81325,-1.00778 -1.3074,-1.03503 -1.3074,-3.07784 0,-2.097288 1.33464,-3.023363 1.36187,-0.953312 4.22181,-0.953312 h 3.21403 v -1.63425 q 0,-1.3074 -0.8716,-1.879388 -0.8716,-0.599225 -2.69652,-0.599225 -1.66148,0 -2.99612,0.299613 -0.49028,0.10895 -0.68094,-0.02724 -0.19066,-0.163425 -0.19066,-0.6537 v -0.2179 q 0,-0.463037 0.16342,-0.626462 0.16343,-0.190663 0.6537,-0.299613 1.19845,-0.272375 2.94165,-0.272375 5.71988,0 5.71988,4.276288 z m -2.04281,5.311315 v -2.070053 h -3.18679 q -1.87939,0 -2.72375,0.544753 -0.81713,0.54475 -0.81713,1.82491 0,2.31519 3.0506,2.31519 1.98834,0 2.8327,-0.57199 0.84437,-0.59923 0.84437,-2.04281 z"
           style="fill:#ffffff;font-style:normal;font-variant:normal;font-weight:normal;font-stretch:normal;font-size:27.23750000000000071px;line-height:1.25;font-family:'AmpleSoft Pro';-inkscape-font-specification:'AmpleSoft Pro, Normal';font-variant-ligatures:normal;font-variant-caps:normal;font-variant-numeric:normal;font-variant-east-asian:normal;fill-opacity:1;stroke:none;stroke-width:0.680938"
           id="path877" />
        <path
           d="m 136.86286,87.45626 v 12.77439 q 0,5.69263 -5.96501,5.69263 -3.02336,0 -4.49419,-1.41635 -1.47082,-1.41635 -1.47082,-4.27628 v -2.53309 q 0,-5.747113 5.63816,-5.747113 3.15955,0 4.24905,1.988338 V 87.45626 q 0,-0.54475 0.16342,-0.708175 0.16343,-0.163425 0.70818,-0.163425 h 0.29961 q 0.51751,0 0.68094,0.163425 0.19066,0.163425 0.19066,0.708175 z m -9.88721,10.214062 v 2.533088 q 0,2.04281 0.8716,2.91441 0.8716,0.8716 3.0506,0.8716 2.15176,0 3.02336,-0.8716 0.89884,-0.8716 0.89884,-2.91441 v -2.533088 q 0,-2.042812 -0.89884,-2.914412 -0.8716,-0.8716 -3.02336,-0.8716 -2.15176,0 -3.0506,0.8716 -0.8716,0.8716 -0.8716,2.914412 z"
           style="fill:#ffffff;font-style:normal;font-variant:normal;font-weight:normal;font-stretch:normal;font-size:27.23750000000000071px;line-height:1.25;font-family:'AmpleSoft Pro';-inkscape-font-specification:'AmpleSoft Pro, Normal';font-variant-ligatures:normal;font-variant-caps:normal;font-variant-numeric:normal;font-variant-east-asian:normal;fill-opacity:1;stroke:none;stroke-width:0.680938"
           id="path879" />
        <path
           d="m 150.94635,97.397947 q 0,0.953313 -0.0817,1.470825 -0.0545,0.517513 -0.24514,0.680938 -0.19066,0.163425 -0.73541,0.163425 h -8.22573 v 0.817125 q 0,1.85215 0.98055,2.66927 1.00779,0.78989 3.2685,0.78989 1.87939,0 3.7043,-0.51751 0.49028,-0.13619 0.68094,0.0272 0.19066,0.16342 0.19066,0.68093 v 0.24514 q 0,0.4358 -0.16342,0.62646 -0.13619,0.19067 -0.68094,0.35409 -1.66149,0.51751 -3.73154,0.51751 -3.2685,0 -4.7938,-1.33463 -1.49806,-1.36188 -1.49806,-4.358 v -2.53309 q 0,-5.747113 5.74711,-5.747113 2.72375,0 4.1401,1.389113 1.44359,1.389112 1.44359,4.058387 z m -9.28799,-0.299612 v 0.898837 h 7.35413 v -0.898837 q 0,-3.322975 -3.67706,-3.322975 -3.67707,0 -3.67707,3.322975 z"
           style="fill:#ffffff;font-style:normal;font-variant:normal;font-weight:normal;font-stretch:normal;font-size:27.23750000000000071px;line-height:1.25;font-family:'AmpleSoft Pro';-inkscape-font-specification:'AmpleSoft Pro, Normal';font-variant-ligatures:normal;font-variant-caps:normal;font-variant-numeric:normal;font-variant-east-asian:normal;fill-opacity:1;stroke:none;stroke-width:0.680938"
           id="path881" />
        <g
           id="g853"
           style="fill:#ffffff;font-style:normal;font-weight:normal;font-size:27.16689999999999827px;line-height:1.25;font-family:sans-serif;fill-opacity:1;stroke:#666666;stroke-width:1.07819;stroke-miterlimit:4;stroke-dasharray:none;stroke-opacity:1;opacity:1"
           transform="scale(1.0503136,0.95209662)">
          <path
             style="color:#000000;font-style:normal;font-variant:normal;font-weight:normal;font-stretch:normal;font-size:27.16689999999999827px;line-height:1.25;font-family:'AmpleSoft Pro';-inkscape-font-specification:'AmpleSoft Pro, Normal';font-variant-ligatures:normal;font-variant-position:normal;font-variant-caps:normal;font-variant-numeric:normal;font-variant-alternates:normal;font-variant-east-asian:normal;font-feature-settings:normal;font-variation-settings:normal;text-indent:0;text-align:start;text-decoration:none;text-decoration-line:none;text-decoration-style:solid;text-decoration-color:#000000;letter-spacing:normal;word-spacing:normal;text-transform:none;writing-mode:lr-tb;direction:ltr;text-orientation:mixed;dominant-baseline:auto;baseline-shift:baseline;text-anchor:start;white-space:normal;shape-padding:0;shape-margin:0;inline-size:0;clip-rule:nonzero;display:inline;overflow:visible;visibility:visible;isolation:auto;mix-blend-mode:normal;color-interpolation:sRGB;color-interpolation-filters:linearRGB;solid-color:#000000;solid-opacity:1;vector-effect:none;fill:#ffffff;fill-opacity:1;fill-rule:nonzero;stroke:none;stroke-width:1.07819;stroke-linecap:butt;stroke-linejoin:miter;stroke-miterlimit:4;stroke-dasharray:none;stroke-dashoffset:0;stroke-opacity:1;color-rendering:auto;image-rendering:auto;shape-rendering:auto;text-rendering:auto;enable-background:accumulate;stop-color:#000000;stop-opacity:1"
             d="M 154.72014,107.07204 V 92.401918 c 0,-0.362225 0.0543,-0.597672 0.16301,-0.706339 0.10867,-0.108667 0.34411,-0.163001 0.70634,-0.163001 h 0.29883 c 0.34411,0 0.5705,0.05433 0.67917,0.163001 0.12678,0.108667 0.19017,0.344114 0.19017,0.706339 v 14.316952 c 0,1.37646 0.46184,2.06469 1.38551,2.06469 h 0.13584 c 0.36223,0 0.58862,0.0453 0.67917,0.13583 0.10867,0.0724 0.163,0.26262 0.163,0.57051 v 0.19017 c 0,0.34411 -0.0543,0.58861 -0.163,0.7335 -0.0906,0.12678 -0.28978,0.21734 -0.59767,0.27167 -0.0543,0.0181 -0.21733,0.0272 -0.489,0.0272 -0.99612,0 -1.77491,-0.30789 -2.33636,-0.92368 -0.54334,-0.61578 -0.81501,-1.52134 -0.81501,-2.71669 z"
             id="path855" />
          <path
             style="color:#000000;font-style:normal;font-variant:normal;font-weight:normal;font-stretch:normal;font-size:27.16689999999999827px;line-height:1.25;font-family:'AmpleSoft Pro';-inkscape-font-specification:'AmpleSoft Pro, Normal';font-variant-ligatures:normal;font-variant-position:normal;font-variant-caps:normal;font-variant-numeric:normal;font-variant-alternates:normal;font-variant-east-asian:normal;font-feature-settings:normal;font-variation-settings:normal;text-indent:0;text-align:start;text-decoration:none;text-decoration-line:none;text-decoration-style:solid;text-decoration-color:#000000;letter-spacing:normal;word-spacing:normal;text-transform:none;writing-mode:lr-tb;direction:ltr;text-orientation:mixed;dominant-baseline:auto;baseline-shift:baseline;text-anchor:start;white-space:normal;shape-padding:0;shape-margin:0;inline-size:0;clip-rule:nonzero;display:inline;overflow:visible;visibility:visible;isolation:auto;mix-blend-mode:normal;color-interpolation:sRGB;color-interpolation-filters:linearRGB;solid-color:#000000;solid-opacity:1;vector-effect:none;fill:#ffffff;fill-opacity:1;fill-rule:nonzero;stroke:none;stroke-width:1.07819;stroke-linecap:butt;stroke-linejoin:miter;stroke-miterlimit:4;stroke-dasharray:none;stroke-dashoffset:0;stroke-opacity:1;color-rendering:auto;image-rendering:auto;shape-rendering:auto;text-rendering:auto;enable-background:accumulate;stop-color:#000000;stop-opacity:1"
             d="M 155.58984 90.994141 C 155.17371 90.994141 154.8224 90.994006 154.50195 91.314453 C 154.1815 91.634892 154.18164 91.986206 154.18164 92.402344 L 154.18164 107.07227 C 154.18164 108.34929 154.47302 109.39899 155.13086 110.14453 L 155.13477 110.14844 L 155.13672 110.15234 C 155.80512 110.88543 156.76389 111.25195 157.87109 111.25195 C 158.01292 111.25195 158.12848 111.2496 158.22656 111.24414 C 158.30707 111.23966 158.37599 111.23145 158.47656 111.20508 C 158.8337 111.14049 159.15906 111.04984 159.39062 110.73047 C 159.61875 110.423 159.66016 110.07828 159.66016 109.67969 L 159.66016 109.49023 C 159.66016 109.30458 159.64789 109.13773 159.59961 108.96875 C 159.55549 108.81432 159.45412 108.64506 159.28711 108.51367 C 159.13229 108.38156 158.97643 108.31911 158.82617 108.28906 C 158.65876 108.25558 158.48287 108.24414 158.2793 108.24414 L 158.14258 108.24414 C 157.81463 108.24414 157.68904 108.17283 157.55078 107.9668 C 157.41252 107.76076 157.29687 107.34669 157.29688 106.71875 L 157.29688 92.402344 C 157.29688 91.984578 157.2583 91.605687 156.92383 91.306641 C 156.61953 91.018039 156.27992 90.994141 155.88867 90.994141 L 155.58984 90.994141 z M 155.58984 92.072266 L 155.88867 92.072266 C 156.17604 92.072266 156.27807 92.168694 156.18555 92.076172 L 156.20117 92.091797 L 156.2168 92.105469 C 156.11886 92.02152 156.21875 92.103013 156.21875 92.402344 L 156.21875 106.71875 C 156.21875 107.46727 156.33267 108.08616 156.65625 108.56836 C 156.97983 109.05056 157.54685 109.32227 158.14258 109.32227 L 158.2793 109.32227 C 158.41579 109.32227 158.50372 109.33187 158.56836 109.3418 C 158.5742 109.38156 158.58203 109.41011 158.58203 109.49023 L 158.58203 109.67969 C 158.58203 109.96705 158.51309 110.10885 158.52734 110.08984 L 158.52344 110.0957 L 158.51953 110.09961 C 158.57577 110.02087 158.51371 110.11086 158.26758 110.1543 L 158.22852 110.16211 L 158.18945 110.17383 C 158.29025 110.14019 158.23289 110.16436 158.16797 110.16797 C 158.10305 110.17158 158.00093 110.17383 157.87109 110.17383 C 156.98791 110.17383 156.39166 109.92414 155.9375 109.42773 C 155.51003 108.94161 155.25977 108.18398 155.25977 107.07227 L 155.25977 92.402344 C 155.25977 92.094031 155.36678 91.973068 155.26367 92.076172 C 155.16056 92.179284 155.28153 92.072266 155.58984 92.072266 z "
             id="path857" />
        </g>
        <path
           style="fill:#ffffff;font-style:normal;font-weight:normal;font-size:27.16689999999999827px;line-height:1.25;font-family:'AmpleSoft Pro';fill-opacity:1;stroke:none;stroke-width:1.07819;stroke-miterlimit:4;stroke-dasharray:none;stroke-opacity:1;color:#000000;font-variant:normal;font-stretch:normal;-inkscape-font-specification:'AmpleSoft Pro, Normal';font-variant-ligatures:normal;font-variant-position:normal;font-variant-caps:normal;font-variant-numeric:normal;font-variant-alternates:normal;font-variant-east-asian:normal;font-feature-settings:normal;font-variation-settings:normal;text-indent:0;text-align:start;text-decoration:none;text-decoration-line:none;text-decoration-style:solid;text-decoration-color:#000000;letter-spacing:normal;word-spacing:normal;text-transform:none;writing-mode:lr-tb;direction:ltr;text-orientation:mixed;dominant-baseline:auto;baseline-shift:baseline;text-anchor:start;white-space:normal;shape-padding:0;shape-margin:0;inline-size:0;clip-rule:nonzero;display:inline;overflow:visible;visibility:visible;isolation:auto;mix-blend-mode:normal;color-interpolation:sRGB;color-interpolation-filters:linearRGB;solid-color:#000000;solid-opacity:1;vector-effect:none;fill-rule:nonzero;stroke-linecap:butt;stroke-linejoin:miter;stroke-dashoffset:0;color-rendering:auto;image-rendering:auto;shape-rendering:auto;text-rendering:auto;enable-background:accumulate;stop-color:#000000"
           d="m 162.93346,98.025467 v 7.715403 c 0,1.12289 0.27167,1.92884 0.81501,2.41785 0.56145,0.48901 1.50323,0.73351 2.82536,0.73351 1.34023,0 2.27296,-0.23545 2.79819,-0.70634 0.54334,-0.48901 0.81501,-1.30401 0.81501,-2.44502 v -7.715403 c 0,-0.344114 0.0543,-0.570505 0.163,-0.679173 0.12678,-0.126779 0.36223,-0.190168 0.70634,-0.190168 h 0.29883 c 0.36223,0 0.59767,0.06339 0.70634,0.190168 0.10867,0.108668 0.163,0.335059 0.163,0.679173 v 7.715403 c 0,1.70246 -0.46184,2.9793 -1.38551,3.83053 -0.90556,0.83312 -2.32729,1.24968 -4.2652,1.24968 -3.78525,0 -5.67788,-1.6934 -5.67788,-5.08021 v -7.715403 c 0,-0.344114 0.0543,-0.570505 0.163,-0.679173 0.12678,-0.126779 0.36223,-0.190168 0.70634,-0.190168 h 0.29883 c 0.36223,0 0.59767,0.06339 0.70634,0.190168 0.10867,0.108668 0.163,0.335059 0.163,0.679173 z"
           id="path861"
           transform="scale(1.0503136,0.95209662)" />
        <path
           style="fill:#ffffff;font-style:normal;font-weight:normal;font-size:27.16689999999999827px;line-height:1.25;font-family:'AmpleSoft Pro';fill-opacity:1;stroke:none;stroke-width:1.07819;stroke-miterlimit:4;stroke-dasharray:none;stroke-opacity:1;color:#000000;font-variant:normal;font-stretch:normal;-inkscape-font-specification:'AmpleSoft Pro, Normal';font-variant-ligatures:normal;font-variant-position:normal;font-variant-caps:normal;font-variant-numeric:normal;font-variant-alternates:normal;font-variant-east-asian:normal;font-feature-settings:normal;font-variation-settings:normal;text-indent:0;text-align:start;text-decoration:none;text-decoration-line:none;text-decoration-style:solid;text-decoration-color:#000000;letter-spacing:normal;word-spacing:normal;text-transform:none;writing-mode:lr-tb;direction:ltr;text-orientation:mixed;dominant-baseline:auto;baseline-shift:baseline;text-anchor:start;white-space:normal;shape-padding:0;shape-margin:0;inline-size:0;clip-rule:nonzero;display:inline;overflow:visible;visibility:visible;isolation:auto;mix-blend-mode:normal;color-interpolation:sRGB;color-interpolation-filters:linearRGB;solid-color:#000000;solid-opacity:1;vector-effect:none;fill-rule:nonzero;stroke-linecap:butt;stroke-linejoin:miter;stroke-dashoffset:0;color-rendering:auto;image-rendering:auto;shape-rendering:auto;text-rendering:auto;enable-background:accumulate;stop-color:#000000"
           d="m 161.76562,96.617188 c -0.41031,0 -0.78866,0.04843 -1.08789,0.347656 -0.30985,0.309856 -0.32031,0.659686 -0.32031,1.060547 v 7.714839 c 0,1.79383 0.51825,3.24711 1.59766,4.21289 1.07941,0.96579 2.64612,1.40625 4.61914,1.40626 2.01516,0 3.58233,-0.42778 4.6289,-1.39063 h 0.002 c 1.05537,-0.9726 1.55859,-2.42856 1.55859,-4.22852 v -7.714839 c 0,-0.391249 -0.0239,-0.730861 -0.3125,-1.035157 -0.29905,-0.334471 -0.67794,-0.373046 -1.0957,-0.373046 h -0.29883 c -0.41032,0 -0.78866,0.04843 -1.08789,0.347656 -0.30985,0.309856 -0.32031,0.659686 -0.32031,1.060547 v 7.714839 c 0,1.05544 -0.24835,1.69539 -0.63672,2.04493 -0.35553,0.31875 -1.16041,0.56836 -2.4375,0.56836 -1.25356,0 -2.0627,-0.24918 -2.4668,-0.59961 -0.38944,-0.35217 -0.63476,-0.97985 -0.63476,-2.01368 v -7.714839 c 0,-0.391249 -0.0239,-0.730861 -0.3125,-1.035157 -0.29905,-0.334471 -0.67794,-0.373046 -1.09571,-0.373046 z m 0,1.078124 h 0.29883 c 0.29934,10e-7 0.38083,0.0999 0.29688,0.002 l 0.0137,0.01563 0.0137,0.01367 c -0.0925,-0.09252 0.006,0.01146 0.006,0.298829 v 7.714839 c 0,1.20985 0.29829,2.1921 0.99414,2.81836 l 0.002,0.004 0.004,0.002 c 0.71949,0.62666 1.7911,0.86719 3.17969,0.86719 1.40337,0 2.46328,-0.22072 3.1582,-0.84375 v -0.002 c 0.69831,-0.62848 0.99414,-1.61913 0.99414,-2.84571 v -7.714839 c 0,-0.287368 0.0964,-0.391349 0.004,-0.298829 -0.0457,0.04567 0.0483,-0.03125 0.32617,-0.03125 h 0.29883 c 0.29933,10e-7 0.38083,0.0999 0.29687,0.002 l 0.0137,0.01563 0.0137,0.01367 c -0.0925,-0.09252 0.006,0.01146 0.006,0.298829 v 7.714839 c 0,1.60418 -0.41973,2.70374 -1.21094,3.4336 -0.76455,0.70339 -2.03974,1.10742 -3.90039,1.10742 -1.81224,0 -3.08522,-0.4052 -3.89844,-1.13281 -0.81322,-0.72762 -1.24023,-1.81522 -1.24023,-3.40821 v -7.714839 c 0,-0.287368 0.0964,-0.391349 0.004,-0.298829 -0.0457,0.04567 0.0483,-0.03125 0.32617,-0.03125 z"
           id="path863"
           transform="scale(1.0503136,0.95209662)" />
        <path
           style="fill:#ffffff;font-style:normal;font-weight:normal;font-size:27.16689999999999827px;line-height:1.25;font-family:'AmpleSoft Pro';fill-opacity:1;stroke:none;stroke-width:1.07819;stroke-miterlimit:4;stroke-dasharray:none;stroke-opacity:1;color:#000000;font-variant:normal;font-stretch:normal;-inkscape-font-specification:'AmpleSoft Pro, Normal';font-variant-ligatures:normal;font-variant-position:normal;font-variant-caps:normal;font-variant-numeric:normal;font-variant-alternates:normal;font-variant-east-asian:normal;font-feature-settings:normal;font-variation-settings:normal;text-indent:0;text-align:start;text-decoration:none;text-decoration-line:none;text-decoration-style:solid;text-decoration-color:#000000;letter-spacing:normal;word-spacing:normal;text-transform:none;writing-mode:lr-tb;direction:ltr;text-orientation:mixed;dominant-baseline:auto;baseline-shift:baseline;text-anchor:start;white-space:normal;shape-padding:0;shape-margin:0;inline-size:0;clip-rule:nonzero;display:inline;overflow:visible;visibility:visible;isolation:auto;mix-blend-mode:normal;color-interpolation:sRGB;color-interpolation-filters:linearRGB;solid-color:#000000;solid-opacity:1;vector-effect:none;fill-rule:nonzero;stroke-linecap:butt;stroke-linejoin:miter;stroke-dashoffset:0;color-rendering:auto;image-rendering:auto;shape-rendering:auto;text-rendering:auto;enable-background:accumulate;stop-color:#000000"
           d="m 175.38779,98.215635 v -0.244502 c 0,-0.326003 0.0543,-0.543338 0.163,-0.652006 0.10867,-0.108667 0.326,-0.163001 0.65201,-0.163001 h 6.38422 c 1.05045,0 1.79301,0.190168 2.22768,0.570505 0.45279,0.380337 0.67918,1.023287 0.67918,1.92885 0,0.579559 -0.12678,1.077619 -0.38034,1.494179 -0.25356,0.39845 -0.7154,0.83312 -1.38551,1.30401 l -6.46572,4.53687 c -0.43467,0.30789 -0.65201,0.62484 -0.65201,0.95085 0,0.489 0.38034,0.7335 1.14101,0.7335 h 6.92756 c 0.326,0 0.54334,0.0543 0.65201,0.163 0.10867,0.10867 0.163,0.326 0.163,0.65201 v 0.2445 c 0,0.32601 -0.0543,0.54334 -0.163,0.65201 -0.10867,0.10867 -0.32601,0.163 -0.65201,0.163 h -7.09056 c -1.90169,0 -2.85253,-0.81501 -2.85253,-2.44502 0,-1.06857 0.56145,-2.0013 1.68435,-2.79819 l 6.41139,-4.45538 c 0.52523,-0.36222 0.78784,-0.7335 0.78784,-1.113838 0,-0.470893 -0.38034,-0.70634 -1.14101,-0.70634 h -6.27555 c -0.32601,0 -0.54334,-0.05433 -0.65201,-0.163001 -0.10867,-0.108668 -0.163,-0.326003 -0.163,-0.652006 z"
           id="path867"
           transform="scale(1.0503136,0.95209662)" />
        <path
           style="fill:#ffffff;font-style:normal;font-weight:normal;font-size:27.16689999999999827px;line-height:1.25;font-family:'AmpleSoft Pro';fill-opacity:1;stroke:none;stroke-width:1.07819;stroke-miterlimit:4;stroke-dasharray:none;stroke-opacity:1;color:#000000;font-variant:normal;font-stretch:normal;-inkscape-font-specification:'AmpleSoft Pro, Normal';font-variant-ligatures:normal;font-variant-position:normal;font-variant-caps:normal;font-variant-numeric:normal;font-variant-alternates:normal;font-variant-east-asian:normal;font-feature-settings:normal;font-variation-settings:normal;text-indent:0;text-align:start;text-decoration:none;text-decoration-line:none;text-decoration-style:solid;text-decoration-color:#000000;letter-spacing:normal;word-spacing:normal;text-transform:none;writing-mode:lr-tb;direction:ltr;text-orientation:mixed;dominant-baseline:auto;baseline-shift:baseline;text-anchor:start;white-space:normal;shape-padding:0;shape-margin:0;inline-size:0;clip-rule:nonzero;display:inline;overflow:visible;visibility:visible;isolation:auto;mix-blend-mode:normal;color-interpolation:sRGB;color-interpolation-filters:linearRGB;solid-color:#000000;solid-opacity:1;vector-effect:none;fill-rule:nonzero;stroke-linecap:butt;stroke-linejoin:miter;stroke-dashoffset:0;color-rendering:auto;image-rendering:auto;shape-rendering:auto;text-rendering:auto;enable-background:accumulate;stop-color:#000000"
           d="m 176.20312,96.617188 c -0.3859,0 -0.73393,0.02104 -1.0332,0.320312 -0.29926,0.299267 -0.32031,0.647302 -0.32031,1.033203 v 0.244141 c 0,0.385901 0.021,0.733936 0.32031,1.033203 0.29927,0.299271 0.6473,0.322265 1.0332,0.322265 h 6.2754 c 0.32471,0 0.51885,0.06264 0.57226,0.0957 0.0534,0.03306 0.0293,-0.01999 0.0293,0.07031 0,0.132185 -0.10206,0.357768 -0.55469,0.669918 v 0.002 l -6.41601,4.45703 -0.002,0.002 c -1.21564,0.86271 -1.91015,1.97892 -1.91015,3.23633 0,0.91983 0.29013,1.72106 0.90039,2.24414 0.61025,0.52307 1.46237,0.74023 2.49023,0.74023 h 7.0918 c 0.3859,0 0.73393,-0.0211 1.0332,-0.32031 0.29927,-0.29927 0.32031,-0.6473 0.32031,-1.0332 v -0.24415 c 0,-0.3859 -0.021,-0.73393 -0.32031,-1.0332 -0.29927,-0.29925 -0.6473,-0.32031 -1.0332,-0.32031 h -6.92774 c -0.32257,0 -0.5118,-0.0658 -0.56445,-0.0996 -0.0526,-0.0339 -0.0391,0.009 -0.0391,-0.0957 0,-0.0864 0.0643,-0.2557 0.42578,-0.51172 l 6.46289,-4.53516 c 0.70247,-0.49363 1.21385,-0.95631 1.53125,-1.45508 l 0.002,-0.006 0.004,-0.004 c 0.31129,-0.51141 0.45898,-1.11526 0.45898,-1.773436 0,-0.993607 -0.25741,-1.821822 -0.86914,-2.337891 -0.5965,-0.519065 -1.46343,-0.701171 -2.57617,-0.701171 z m 0,1.078124 h 6.38477 c 0.98539,0 1.59839,0.198885 1.87109,0.4375 l 0.004,0.0039 0.006,0.002 c 0.29144,0.244807 0.48633,0.701865 0.48633,1.517578 0,0.49847 -0.10681,0.88622 -0.30078,1.20703 -0.19055,0.29785 -0.60065,0.70174 -1.23633,1.14844 l -6.4668,4.53906 c -0.50791,0.35977 -0.88086,0.82502 -0.88086,1.39063 0,0.38426 0.20552,0.79325 0.53321,1.0039 0.32768,0.21065 0.71034,0.26953 1.14843,0.26953 h 6.92774 c 0.2661,0 0.35145,0.0858 0.26953,0.004 -0.0819,-0.0819 0.006,0.005 0.006,0.27148 v 0.24415 c 0,0.2661 -0.0878,0.35342 -0.006,0.27148 0.0819,-0.0819 -0.003,0.004 -0.26953,0.004 h -7.0918 c -0.87383,0 -1.44847,-0.18854 -1.78906,-0.48047 -0.34059,-0.29194 -0.52344,-0.7156 -0.52344,-1.42578 0,-0.87974 0.42688,-1.62635 1.45703,-2.35743 l 6.4043,-4.45117 0.002,-0.002 c 0.59653,-0.41201 1.01953,-0.92901 1.01953,-1.556642 0,-0.380587 -0.21408,-0.785896 -0.54101,-0.988281 -0.32693,-0.202385 -0.70272,-0.25586 -1.13867,-0.255859 h -6.2754 c -0.2661,0 -0.35341,-0.0878 -0.27148,-0.0059 0.0819,0.08193 -0.004,-0.0054 -0.004,-0.271484 v -0.244141 c 0,-0.266104 0.0858,-0.351462 0.004,-0.269531 -0.0819,0.08194 0.005,-0.0059 0.27148,-0.0059 z"
           id="path869"
           transform="scale(1.0503136,0.95209662)" />
        <path
           style="fill:#ffffff;stroke:none;stroke-width:0.26458300000000001px;stroke-linecap:butt;stroke-linejoin:miter;stroke-opacity:1"
           d="m 42.162801,79.136255 c 0.875602,7.352827 -2.601551,10.600195 -5.200632,14.978874 -2.393648,4.032587 -4.620075,7.427251 -0.306749,10.651321 2.5105,1.87653 7.903781,1.7173 10.809218,-2.02138 2.516426,-3.238102 3.037601,-9.159446 2.19819,-12.537834 -1.06989,-4.305996 -3.611563,-8.247588 -7.500027,-11.070981 z"
           id="path893"
           sodipodi:nodetypes="cssssc" />
        <path
           style="fill:#ffffff;stroke:none;stroke-width:0.26458300000000001px;stroke-linecap:butt;stroke-linejoin:miter;stroke-opacity:1"
           d="m 26.468668,62.705733 c 0,0 1.474998,7.810774 -2.451399,15.126502 -2.493726,4.646352 -6.528872,11.047287 -8.222861,13.514802 -2.954479,4.303581 -4.024179,10.494033 -2.442434,15.468753 1.33166,4.18818 5.329921,7.36131 9.199835,9.44408 7.315585,3.93722 14.913595,2.92383 21.249178,-0.24425 3.825621,-1.91299 6.554405,-4.92871 7.815789,-10.17681 0.634766,-2.641 0.163756,-6.154239 -0.488487,-9.118416 0.232982,0 0.325176,7.786016 -6.106086,10.502466 -3.981139,1.68156 -10.55902,1.13321 -12.700658,-2.60526 -0.542804,-0.94753 -3.389143,-4.03058 3.582238,-14.003292 C 38.457,86.961877 41.078614,82.500708 40.544408,78.07648 39.24934,67.350899 29.07004,63.036579 26.468668,62.705733 Z"
           id="path895"
           sodipodi:nodetypes="cssasascssssc" />
      </g>
    </g>
  </g>
</svg>
