<?xml version="1.0" encoding="UTF-8" standalone="no"?>
<svg
   width="210mm"
   height="60mm"
   viewBox="0 0 210 60"
   version="1.1"
   id="svg8"
   inkscape:version="1.1.2 (b8e25be833, 2022-02-05)"
   sodipodi:docname="logo.svg"
   inkscape:export-filename="/Users/adriano.maringolo/Google Drive/Design/Morada/Gotas de Luz/instagram/arte-01/arte-01-c.png"
   inkscape:export-xdpi="128.33047"
   inkscape:export-ydpi="128.33047"
   xmlns:inkscape="http://www.inkscape.org/namespaces/inkscape"
   xmlns:sodipodi="http://sodipodi.sourceforge.net/DTD/sodipodi-0.dtd"
   xmlns="http://www.w3.org/2000/svg"
   xmlns:svg="http://www.w3.org/2000/svg"
   xmlns:rdf="http://www.w3.org/1999/02/22-rdf-syntax-ns#"
   xmlns:cc="http://creativecommons.org/ns#"
   xmlns:dc="http://purl.org/dc/elements/1.1/">
  <defs
     id="defs2">
    <clipPath
       clipPathUnits="userSpaceOnUse"
       id="clipPath846">
      <path
         style="fill:none;stroke:#000000;stroke-width:0.264583px;stroke-linecap:butt;stroke-linejoin:miter;stroke-opacity:1"
         d="m 237.61122,548.33359 c 0,-127.27753 3.66074,-45.33599 -21.93334,-222.98899 -3.24369,-22.51506 -14.72513,-45.57688 -9.13889,-67.62781 6.72455,-26.54428 26.20334,-48.53133 43.86668,-69.45559 55.22253,-65.41746 84.13191,-71.63307 140.73896,-118.805612 0.93609,-0.780076 -2.61067,0.626923 -3.65557,0 -2.21649,-1.329904 -3.33258,-4.049509 -5.48333,-5.483336 -2.09012,-1.393428 -6.49221,0.547039 -7.31109,-1.827779 -6.03079,-17.489241 -20.20549,-34.890937 -16.45002,-53.0055797 5.14265,-24.8056893 28.49454,-106.6018183 76.76671,-109.6667233 28.6358,-1.81814 57.24522,4.10544 85.90558,5.48334 34.70907,1.668706 70.00737,-2.629686 104.18339,3.655557 19.8374,3.648258 36.68403,16.789231 54.83336,25.588902 1.97665,0.958369 3.64916,4.864439 5.48333,3.655558 26.14771,-17.233713 46.26835,-44.063467 74.93894,-56.661137 13.98924,-6.1468 38.29405,-9.71295 45.69447,3.65556 16.03206,28.961132 6.93177,65.844393 10.96666,98.700042 4.49525,36.604089 13.55371,72.803123 14.62223,109.666717 1.37869,47.564711 -4.1873,95.084691 -7.31113,142.566731 -0.0894,1.35941 -1.9172,-5.01496 -1.82777,-3.65555 7.46922,113.53182 33.15968,164.76343 -32.90001,266.85569 -6.61961,10.23033 -24.39567,-0.78451 -36.55557,0 -33.96613,2.19136 -9.94527,10.17405 -56.66113,3.65554 -3.56452,-0.49737 -57.85795,-17.19948 -69.45559,-14.62223 -78.83369,17.5186 -84.52855,43.32214 -168.15564,69.45559 -34.90127,10.90665 -71.53892,15.70556 -107.83896,20.10558 -4.60626,0.55832 -8.33297,-4.20865 -12.79443,-5.48333 -12.64608,-3.61318 -25.62394,-5.94905 -38.38337,-9.13889 -9.17585,-2.29397 -18.09829,-5.69053 -27.41668,-7.31113 -4.802,-0.83513 -9.76816,0.44127 -14.62222,0 -7.10192,-0.64563 -13.42842,-4.80719 -20.10557,-7.31112 z"
         id="path848" />
    </clipPath>
    <clipPath
       clipPathUnits="userSpaceOnUse"
       id="clipPath874">
      <path
         style="fill:none;stroke:#000000;stroke-width:0.264583px;stroke-linecap:butt;stroke-linejoin:miter;stroke-opacity:1"
         d="m -811.53373,-14.622229 c -3.04628,118.805609 -5.622,237.624219 -9.13887,356.416829 -1.96654,66.42489 -6.78373,132.77598 -7.31112,199.22789 -0.0835,10.51711 -0.97378,22.77025 5.48333,31.07224 27.30902,35.11158 98.87241,14.13216 124.28894,12.79443 27.40581,-1.4424 54.90655,-1.31183 82.25005,-3.65554 23.35305,-2.0017 46.08256,-9.21371 69.45558,-10.96668 47.781,-3.58357 43.26988,3.3161 84.07781,-10.96667 1.28588,-0.45005 1.26707,-2.41395 1.8278,-3.65556 7.96938,-17.64649 16.74323,-34.95958 23.76111,-53.00559 28.31481,-72.80947 20.95321,-60.17808 38.38335,-115.15006 9.80416,-30.92082 18.87331,-51.19605 23.76111,-84.07781 4.4123,-29.68259 4.24726,-59.95379 9.1389,-89.56115 6.70057,-40.55604 19.45375,-79.98798 25.58891,-120.633391 2.91886,-19.337348 16.68558,-84.4710548 -14.62222,-104.183381 -24.31966,-15.312368 -53.76299,-20.339278 -80.42228,-31.072238 -20.25978,-8.156538 -38.96537,-20.994315 -60.31669,-25.5889 -15.48482,-3.332181 -117.16337,-8.736224 -142.56673,-3.655557 -14.98341,2.996684 -27.72016,12.943348 -42.03891,18.277787 -16.79144,6.255634 -34.20605,10.70151 -51.1778,16.450006 -70.74225,23.961083 -39.38616,21.933345 -80.42227,21.933345 z"
         id="path876" />
    </clipPath>
    <clipPath
       clipPathUnits="userSpaceOnUse"
       id="clipPath901">
      <path
         style="fill:none;stroke:#000000;stroke-width:0.264583px;stroke-linecap:butt;stroke-linejoin:miter;stroke-opacity:1"
         d="m -484.40681,46.612731 c -5.59062,91.013919 -2.2043,182.203689 -4.56989,273.278569 -0.0559,2.15353 -3.02641,5.97533 -0.91397,6.39781 1.52328,0.30467 3.01662,-0.88892 4.56988,-0.91397 17.36326,-0.28004 34.73106,0 52.09659,0 30.16118,0 60.3485,1.25563 90.48353,0 13.22925,-0.55121 19.82325,-2.82588 32.90311,-4.56986 7.25395,-0.96721 14.70681,0.22738 21.93539,-0.91398 6.95788,-1.09863 6.39783,-0.9163 6.39783,-4.56988 0,-0.8164 -1.37885,-5.01899 -1.82795,-4.56988 -0.30467,0.30467 0.60931,0.60933 0.91398,0.91397 0.60931,0.60931 0.97051,1.74221 1.82795,1.82796 5.36821,0.53681 14.06305,-2.72841 17.36553,-6.39784 24.30188,-27.00208 -18.67744,2.5763 20.10745,-29.2472 6.54399,-5.36943 15.67188,-7.10155 21.9354,-12.79565 9.45096,-8.59178 8.33986,-17.36447 10.05373,-28.33323 2.52206,-16.14118 7.05692,-32.04367 2.74192,-48.44068 -1.59839,-6.07389 -3.93985,-12.06675 -7.3118,-17.36552 -3.12488,-4.91053 -7.76597,-8.67995 -11.88167,-12.79566 -13.14955,-13.14954 -34.51403,-32.1482 -46.61275,-45.69875 -7.5103,-8.41155 -14.22617,-17.506183 -21.02141,-26.505279 -12.97107,-17.177906 -25.10375,-40.426103 -47.52671,-47.526705 -18.85066,-5.969373 -65.48556,-5.305075 -85.91367,-1.82795 -10.93248,1.860849 -21.05028,7.31661 -31.98913,9.139751 -6.15638,1.026062 -16.47651,0.913974 -23.76334,0.913974 z"
         id="path903" />
    </clipPath>
    <clipPath
       clipPathUnits="userSpaceOnUse"
       id="clipPath1550">
      <path
         style="fill:none;stroke:#000000;stroke-width:0.264583px;stroke-linecap:butt;stroke-linejoin:miter;stroke-opacity:1"
         d="m 355.01003,-292.99953 c 12.91884,34.62252 21.69348,71.08849 38.75654,103.86756 3.41627,6.56286 13.6857,5.7084 20.15342,9.30157 2.89245,1.60691 5.27825,4.00277 7.75131,6.20105 2.18482,1.94207 4.13404,4.13403 6.20104,6.20105 2.58376,1.55026 5.48367,2.6666 7.75131,4.65078 1.94448,1.70143 3.13108,4.11146 4.6508,6.20105 16.37519,22.51591 17.40246,35.67351 48.05812,37.20629 11.54054,0.57703 27.84149,3.50856 34.10577,-6.20105 2.18368,-3.38473 -6.20107,-64.18782 -6.20107,-72.86231 0,-5.26988 2.49648,-10.26748 3.10052,-15.50263 2.26105,-19.59569 5.38742,-44.48216 -1.55024,-63.56073 -2.96032,-8.14086 -16.46264,-5.41568 -24.80422,-7.75132 -21.50858,-6.02242 -16.55746,-8.89246 -41.85705,-13.95238 -26.25172,-5.25034 -54.38352,-0.83428 -80.61365,1.55028 -2.05851,0.18714 -4.22119,-0.59397 -6.20104,0 -3.32028,0.99607 -6.20104,3.10052 -9.30156,4.65079 z"
         id="path1552" />
    </clipPath>
    <clipPath
       clipPathUnits="userSpaceOnUse"
       id="clipPath1522">
      <rect
         style="opacity:0.601054;fill:#000000;stroke:#9b9b9b;stroke-width:4;stroke-linecap:round;stroke-linejoin:round"
         id="rect1524"
         width="166.96596"
         height="82.648155"
         x="-31.723532"
         y="235.422" />
    </clipPath>
  </defs>
  <sodipodi:namedview
     id="base"
     pagecolor="#ffffff"
     bordercolor="#666666"
     borderopacity="1.0"
     inkscape:pageopacity="0"
     inkscape:pageshadow="2"
     inkscape:zoom="0.44820793"
     inkscape:cx="1025.1938"
     inkscape:cy="-127.17312"
     inkscape:document-units="mm"
     inkscape:current-layer="layer1"
     inkscape:document-rotation="0"
     showgrid="false"
     inkscape:window-width="1792"
     inkscape:window-height="968"
     inkscape:window-x="0"
     inkscape:window-y="0"
     inkscape:window-maximized="0"
     inkscape:pagecheckerboard="0"
     inkscape:lockguides="false" />
  <metadata
     id="metadata5">
    <rdf:RDF>
      <cc:Work
         rdf:about="">
        <dc:format>image/svg+xml</dc:format>
        <dc:type
           rdf:resource="http://purl.org/dc/dcmitype/StillImage" />
      </cc:Work>
    </rdf:RDF>
  </metadata>
  <g
     inkscape:label="Layer 1"
     inkscape:groupmode="layer"
     id="layer1">
    <path
       d="m 65.676335,27.363202 v 0.355516 q 0,5.15508 -6.132766,5.15508 -2.281271,0 -3.140451,0.237014 -0.711046,0.237015 -0.711046,0.888807 0,0.622168 0.740673,0.829557 0.770299,0.177764 3.110824,0.177764 3.703361,0 5.066199,0.918432 1.42209,0.888808 1.42209,3.140451 0,2.518284 -1.451718,3.525604 -1.362837,1.007309 -5.036571,1.007309 -3.762615,0 -5.125453,-1.007309 -1.392465,-0.977695 -1.392465,-3.110837 0,-2.133131 1.659106,-3.170065 -1.214701,-0.592542 -1.214701,-1.955389 0,-1.955367 2.399777,-2.310884 -2.488659,-1.00732 -2.488659,-4.325534 v -0.355516 q 0,-2.429408 1.62948,-3.762618 1.629478,-1.362837 4.532915,-1.362837 1.629479,0 3.05157,0.592542 l 1.688732,-1.510974 q 0.385151,-0.325902 0.622165,-0.325902 0.237016,0 0.592539,0.325902 l 0.207387,0.207389 q 0.355523,0.32589 0.355523,0.562905 0,0.237014 -0.355523,0.592542 l -1.33321,1.362836 q 1.303583,1.214698 1.303583,3.318215 z m -2.251643,0.355516 v -0.355516 q 0,-3.140451 -3.881123,-3.140451 -3.940377,0 -3.940377,3.140451 v 0.355516 q 0,1.688738 0.888806,2.459033 0.918434,0.74068 3.051571,0.74068 2.133136,0 2.992317,-0.74068 0.888806,-0.770295 0.888806,-2.459033 z m -3.881123,9.243589 q -1.659107,0 -2.903437,-0.148127 -1.392463,0.681418 -1.392463,2.429396 0,1.422098 0.918433,1.925752 0.918435,0.503666 3.377467,0.503666 2.429405,0 3.347838,-0.533291 0.918434,-0.53328 0.918434,-1.985004 0,-1.362836 -0.888807,-1.777614 -0.918433,-0.414778 -3.377465,-0.414778 z"
       style="font-style:normal;font-variant:normal;font-weight:normal;font-stretch:normal;font-size:27.2375px;line-height:1.25;font-family:'AmpleSoft Pro';-inkscape-font-specification:'AmpleSoft Pro, Normal';font-variant-ligatures:normal;font-variant-caps:normal;font-variant-numeric:normal;font-variant-east-asian:normal;fill:#ffffff;fill-opacity:1;stroke:none;stroke-width:0.740672"
       id="path880-8" />
    <path
       d="m 79.182032,31.214696 v -2.755298 q 0,-2.222018 -0.94806,-3.170076 -0.948062,-0.948069 -3.288586,-0.948069 -2.370151,0 -3.347839,0.948069 -0.94806,0.948058 -0.94806,3.170076 v 2.755298 q 0,2.222018 0.94806,3.170076 0.977688,0.948058 3.347839,0.948058 2.340524,0 3.288586,-0.948058 0.94806,-0.948058 0.94806,-3.170076 z m -4.236646,6.22164 q -3.377465,0 -4.947691,-1.5406 -1.570225,-1.5406 -1.570225,-4.68104 v -2.755298 q 0,-6.221651 6.517916,-6.221651 3.347839,0 4.888438,1.5406 1.570224,1.5406 1.570224,4.681051 v 2.755298 q 0,6.22164 -6.458662,6.22164 z"
       style="font-style:normal;font-variant:normal;font-weight:normal;font-stretch:normal;font-size:27.2375px;line-height:1.25;font-family:'AmpleSoft Pro';-inkscape-font-specification:'AmpleSoft Pro, Normal';font-variant-ligatures:normal;font-variant-caps:normal;font-variant-numeric:normal;font-variant-east-asian:normal;fill:#ffffff;fill-opacity:1;stroke:none;stroke-width:0.740672"
       id="path882-2" />
    <path
       d="M 83.245545,23.837598 V 23.68946 q 0,-0.503655 0.148134,-0.681418 0.177761,-0.177753 0.651792,-0.237015 l 1.688733,-0.237014 0.325896,-3.051564 q 0.02962,-0.474029 0.207389,-0.622167 0.177761,-0.177764 0.681418,-0.177764 h 0.207388 q 0.47403,0 0.622164,0.177764 0.177761,0.148138 0.177761,0.622167 v 3.051564 h 4.799559 q 0.562906,0 0.740669,0.177763 0.177764,0.177764 0.177764,0.740669 v 0.26664 q 0,0.562917 -0.177764,0.74068 -0.177763,0.177764 -0.740669,0.177764 H 87.95622 v 7.525225 q 0,1.629476 0.651792,2.399782 0.681419,0.740669 2.073888,0.740669 1.659101,0 2.636785,-0.296265 0.503665,-0.118513 0.681418,0.05925 0.2074,0.148128 0.2074,0.711044 v 0.26664 q 0,0.444404 -0.2074,0.681418 -0.177753,0.237015 -0.711044,0.385153 -1.096185,0.296276 -2.577534,0.296276 -4.977321,0 -4.977321,-5.243967 v -7.525225 h -1.688733 q -0.503657,0 -0.651792,-0.148138 -0.148134,-0.148138 -0.148134,-0.651793 z"
       style="font-style:normal;font-variant:normal;font-weight:normal;font-stretch:normal;font-size:27.2375px;line-height:1.25;font-family:'AmpleSoft Pro';-inkscape-font-specification:'AmpleSoft Pro, Normal';font-variant-ligatures:normal;font-variant-caps:normal;font-variant-numeric:normal;font-variant-east-asian:normal;fill:#ffffff;fill-opacity:1;stroke:none;stroke-width:0.740672"
       id="path884-2" />
    <path
       d="m 107.60904,26.889173 v 5.866123 q 0,2.459022 -1.48135,3.584854 -1.48134,1.096186 -4.71068,1.096186 -2.696046,0 -4.147759,-1.096186 -1.422098,-1.125832 -1.422098,-3.347839 0,-2.281269 1.451723,-3.28859 1.481338,-1.036934 4.592164,-1.036934 h 3.49598 v -1.777614 q 0,-1.422099 -0.94806,-2.044266 -0.94806,-0.651782 -2.93307,-0.651782 -1.807232,0 -3.258956,0.325891 -0.533291,0.118513 -0.740669,-0.02962 -0.207389,-0.177764 -0.207389,-0.711044 v -0.237025 q 0,-0.503655 0.177753,-0.681407 0.177775,-0.20739 0.711055,-0.325902 1.303574,-0.296266 3.199706,-0.296266 6.22165,0 6.22165,4.651414 z m -2.22202,5.777247 v -2.251655 h -3.46634 q -2.044269,0 -2.962702,0.592542 -0.888807,0.592542 -0.888807,1.985004 0,2.518283 3.318219,2.518283 2.16276,0 3.08118,-0.622167 0.91845,-0.651793 0.91845,-2.222007 z"
       style="font-style:normal;font-variant:normal;font-weight:normal;font-stretch:normal;font-size:27.2375px;line-height:1.25;font-family:'AmpleSoft Pro';-inkscape-font-specification:'AmpleSoft Pro, Normal';font-variant-ligatures:normal;font-variant-caps:normal;font-variant-numeric:normal;font-variant-east-asian:normal;fill:#ffffff;fill-opacity:1;stroke:none;stroke-width:0.740672"
       id="path886-0" />
    <path
       d="m 131.39943,17.349307 v 13.895014 q 0,6.192015 -6.48829,6.192015 -3.28858,0 -4.88844,-1.5406 -1.59985,-1.5406 -1.59985,-4.651415 v -2.755298 q 0,-6.251276 6.13276,-6.251276 3.43673,0 4.6218,2.162768 v -7.051208 q 0,-0.59253 0.17776,-0.770294 0.17777,-0.177764 0.7703,-0.177764 h 0.32589 q 0.56292,0 0.74068,0.177764 0.20739,0.177764 0.20739,0.770294 z m -10.75456,11.110091 v 2.755298 q 0,2.222018 0.94806,3.170076 0.94805,0.948058 3.31821,0.948058 2.34052,0 3.28858,-0.948058 0.97769,-0.948058 0.97769,-3.170076 v -2.755298 q 0,-2.222018 -0.97769,-3.170076 -0.94806,-0.948069 -3.28858,-0.948069 -2.34052,0 -3.31821,0.948069 -0.94806,0.948058 -0.94806,3.170076 z"
       style="font-style:normal;font-variant:normal;font-weight:normal;font-stretch:normal;font-size:27.2375px;line-height:1.25;font-family:'AmpleSoft Pro';-inkscape-font-specification:'AmpleSoft Pro, Normal';font-variant-ligatures:normal;font-variant-caps:normal;font-variant-numeric:normal;font-variant-east-asian:normal;fill:#ffffff;fill-opacity:1;stroke:none;stroke-width:0.740672"
       id="path888-3" />
    <path
       d="m 146.71839,28.163121 q 0,1.036946 -0.0889,1.599851 -0.0593,0.562917 -0.26664,0.74068 -0.20739,0.177764 -0.79992,0.177764 h -8.94733 v 0.888807 q 0,2.014618 1.06657,2.903426 1.0962,0.859181 3.55523,0.859181 2.04425,0 4.02926,-0.562905 0.53329,-0.148138 0.74067,0.02963 0.20738,0.177764 0.20738,0.740669 v 0.26664 q 0,0.474029 -0.17775,0.681419 -0.14814,0.2074 -0.74068,0.385152 -1.80724,0.562906 -4.05888,0.562906 -3.55523,0 -5.21433,-1.451702 -1.62948,-1.48136 -1.62948,-4.740313 v -2.755298 q 0,-6.251276 6.25127,-6.251276 2.96268,0 4.50328,1.510975 1.57024,1.510963 1.57024,4.414399 z m -10.10278,-0.32589 v 0.977683 h 7.99926 v -0.977683 q 0,-3.61448 -3.99962,-3.61448 -3.99964,0 -3.99964,3.61448 z"
       style="font-style:normal;font-variant:normal;font-weight:normal;font-stretch:normal;font-size:27.2375px;line-height:1.25;font-family:'AmpleSoft Pro';-inkscape-font-specification:'AmpleSoft Pro, Normal';font-variant-ligatures:normal;font-variant-caps:normal;font-variant-numeric:normal;font-variant-east-asian:normal;fill:#ffffff;fill-opacity:1;stroke:none;stroke-width:0.740672"
       id="path890-3" />
    <path
       d="m 159.29064,30.791489 v -2.910402 q 0,-2.969204 1.64629,-4.5273 1.64629,-1.558096 4.90948,-1.558096 1.5287,0 2.58703,0.382179 0.52917,0.176389 0.70555,0.41157 0.17638,0.205791 0.17638,0.705555 v 0.293984 q 0,0.558557 -0.17638,0.734945 -0.17638,0.146987 -0.70555,-0.0294 -1.17593,-0.41157 -2.52823,-0.41157 -2.38125,0 -3.41018,0.940735 -0.99953,0.940736 -0.99953,3.086801 v 2.851609 q 0,2.204846 1.05833,3.116191 1.05832,0.911334 3.52777,0.911334 1.58749,0 2.64581,-0.382179 0.49978,-0.176389 0.67616,0 0.20579,0.176389 0.20579,0.734956 v 0.293985 q 0,0.470362 -0.20579,0.705543 -0.17638,0.205791 -0.73495,0.352778 -1.14652,0.382179 -2.73401,0.382179 -3.38078,0 -5.02707,-1.469902 -1.6169,-1.499303 -1.6169,-4.615495 z"
       style="font-size:26.2966px;line-height:1.25;font-family:'AmpleSoft Pro';-inkscape-font-specification:'AmpleSoft Pro';text-align:center;text-anchor:middle;fill:#ffffff;fill-opacity:1;stroke:#ffffff;stroke-width:0.689017"
       id="path883" />
    <path
       d="m 173.90145,23.030412 v 8.349035 q 0,1.822679 0.88194,2.616427 0.91134,0.793749 3.05739,0.793749 2.17546,0 3.028,-0.764347 0.88194,-0.793749 0.88194,-2.645829 v -8.349035 q 0,-0.558568 0.17639,-0.734957 0.20578,-0.205779 0.76435,-0.205779 h 0.32338 q 0.58795,0 0.76434,0.205779 0.17639,0.176389 0.17639,0.734957 v 8.349035 q 0,2.763414 -1.49929,4.145132 -1.4699,1.352306 -4.6155,1.352306 -6.14418,0 -6.14418,-5.497438 v -8.349035 q 0,-0.558568 0.17638,-0.734957 0.2058,-0.205779 0.76435,-0.205779 h 0.32338 q 0.58797,0 0.76436,0.205779 0.17638,0.176389 0.17638,0.734957 z"
       style="font-size:26.2966px;line-height:1.25;font-family:'AmpleSoft Pro';-inkscape-font-specification:'AmpleSoft Pro';text-align:center;text-anchor:middle;fill:#ffffff;fill-opacity:1;stroke:#ffffff;stroke-width:0.689017"
       id="path885" />
    <path
       d="m 189.45303,26.999144 v 8.64302 q 0,0.587959 -0.17639,0.764347 -0.17639,0.176389 -0.76435,0.176389 h -0.32338 q -0.55856,0 -0.76435,-0.176389 -0.17639,-0.176388 -0.17639,-0.764347 v -8.760616 q 0,-5.085857 5.02707,-5.085857 0.23518,0 0.94073,0.0588 0.55857,0.0588 0.70556,0.264583 0.17639,0.205779 0.17639,0.764347 v 0.293973 q 0,0.558568 -0.17639,0.705555 -0.17639,0.146987 -0.73496,0.0588 -0.17639,0 -0.41157,0 -0.20579,-0.0294 -0.32337,-0.0294 -0.1176,-0.0294 -0.17639,-0.0294 -1.5581,0 -2.20486,0.734956 -0.61735,0.705543 -0.61735,2.381235 z"
       style="font-size:26.2966px;line-height:1.25;font-family:'AmpleSoft Pro';-inkscape-font-specification:'AmpleSoft Pro';text-align:center;text-anchor:middle;fill:#ffffff;fill-opacity:1;stroke:#ffffff;stroke-width:0.689017"
       id="path887" />
    <path
       d="m 206.65087,26.411186 v 5.820813 q 0,2.440028 -1.46991,3.557152 -1.4699,1.087734 -4.67428,1.087734 -2.67522,0 -4.11572,-1.087734 -1.41111,-1.117124 -1.41111,-3.321971 0,-2.26365 1.44051,-3.263178 1.4699,-1.02893 4.55669,-1.02893 h 3.46897 v -1.763886 q 0,-1.411109 -0.94074,-2.028469 -0.94073,-0.646751 -2.91041,-0.646751 -1.79327,0 -3.23377,0.323376 -0.52917,0.117596 -0.73496,-0.0294 -0.20578,-0.176389 -0.20578,-0.705544 v -0.235192 q 0,-0.499764 0.17639,-0.676153 0.17639,-0.205779 0.70554,-0.323375 1.29351,-0.293985 3.175,-0.293985 6.17358,0 6.17358,4.615495 z m -2.20485,5.732619 v -2.23426 h -3.43957 q -2.02847,0 -2.9398,0.58797 -0.88194,0.587958 -0.88194,1.969665 0,2.498832 3.29258,2.498832 2.14605,0 3.05738,-0.61736 0.91135,-0.646751 0.91135,-2.204847 z"
       style="font-size:26.2966px;line-height:1.25;font-family:'AmpleSoft Pro';-inkscape-font-specification:'AmpleSoft Pro';text-align:center;text-anchor:middle;fill:#ffffff;fill-opacity:1;stroke:#ffffff;stroke-width:0.689017"
       id="path889" />
    <path
       style="fill:#ffffff;fill-opacity:1;stroke:none;stroke-width:0.222598px;stroke-linecap:butt;stroke-linejoin:miter;stroke-opacity:1"
       d="m 27.857327,20.217153 c 0.736657,6.186037 -2.188723,8.918098 -4.375368,12.601943 -2.013811,3.39268 -3.886937,6.248659 -0.258072,8.961117 2.11212,1.578751 6.649567,1.444785 9.093953,-1.700621 2.117106,-2.72426 2.555578,-7.705973 1.84937,-10.548264 -0.900115,-3.622695 -3.038461,-6.938813 -6.309883,-9.314175 z"
       id="path893-0-4"
       sodipodi:nodetypes="cssssc" />
    <path
       style="fill:#ffffff;fill-opacity:1;stroke:none;stroke-width:0.222598px;stroke-linecap:butt;stroke-linejoin:miter;stroke-opacity:1"
       d="m 14.653623,6.393915 c 0,0 1.240938,6.571318 -2.062398,12.726148 -2.098008,3.909043 -5.4928348,9.294247 -6.9180129,11.370202 -2.4856467,3.620663 -3.385601,8.828785 -2.0548551,13.014087 1.1203445,3.523577 4.4841406,6.193181 7.739956,7.94544 6.154708,3.312446 12.547025,2.459866 17.877244,-0.205493 3.218551,-1.609421 5.514317,-4.14659 6.575537,-8.561899 0.534039,-2.221905 0.137771,-5.177651 -0.410971,-7.671456 0.196011,0 0.273575,6.550495 -5.137139,8.835884 -3.34939,1.414721 -8.883458,0.953385 -10.685249,-2.191848 -0.456669,-0.797171 -2.851336,-3.390985 3.013789,-11.781176 2.148058,-3.072841 4.353661,-6.826087 3.904225,-10.548255 C 25.40619,10.301961 16.842196,6.6722599 14.653623,6.393915 Z"
       id="path895-8-5"
       sodipodi:nodetypes="cssasascssssc" />
  </g>
</svg>
